<svg width="81" height="120" viewBox="0 0 81 120" fill="none" xmlns="http://www.w3.org/2000/svg">
<path fill-rule="evenodd" clip-rule="evenodd" d="M16.04 61.0328C21.11 53.7328 24.44 49.8628 41.62 31.5928ZM16.04 61.0328C25.62 51.9928 32.77 41.6028 41.62 31.5928ZM22.08 66.2828C36.29 51.4228 47.49 36.5728 70.62 10.4328ZM22.08 66.2828C40.95 43.1328 59.98 21.0928 70.62 10.4328ZM28.11 71.5328C44.03 53.7528 56.32 37.2428 70.76 22.4728ZM28.11 71.5328C39.76 57.9828 50.9 43.5928 70.76 22.4728ZM33.49 77.5328C43.78 65.7928 52.05 55.7228 70.89 34.5128ZM33.49 77.5328C40.78 67.8828 49.33 59.0728 70.89 34.5128ZM39.53 82.7828C49.5 73.5128 59.05 60.6728 70.37 47.3128ZM39.53 82.7828C50.59 69.9828 62.52 57.7128 70.37 47.3128ZM45.57 88.0328C50.64 82.8628 56.91 74.0128 70.5 59.3528ZM45.57 88.0328C51.39 81.4128 58.08 74.6628 70.5 59.3528ZM51.61 93.2728C55.74 88.2828 62.36 79.8928 70.63 71.3928ZM51.61 93.2728C58.77 85.0528 66.88 77.3528 70.63 71.3928ZM57.65 98.5228C60.02 93.6128 62.94 91.5028 70.77 83.4328ZM57.65 98.5228C60.21 95.6528 63.84 91.9628 70.77 83.4328ZM63.68 103.773C65.8 101.633 67.17 99.7727 70.24 96.2227ZM63.68 103.773C65.8 100.663 68.63 98.2827 70.24 96.2227ZM69.06 109.773C69.19 109.523 69.54 109.013 70.38 108.263ZM69.06 109.773C69.33 109.443 69.78 108.963 70.38 108.263ZM70.08 99.4628C59.63 89.8728 45.21 79.7528 14.98 51.5728ZM70.08 99.4628C49.77 82.2128 27.62 62.7528 14.98 51.5728ZM70.04 88.8327C48.92 71.0127 29.76 56.3728 21.74 46.8528ZM70.04 88.8327C57.06 77.5127 42.92 64.0928 21.74 46.8528ZM70.01 78.2028C57.81 67.5828 47.21 58.2828 28.5 42.1228ZM70.01 78.2028C57.38 67.0028 43.23 54.2728 28.5 42.1228ZM69.97 67.5728C61.68 60.2228 52.98 51.8128 34.5 36.7428ZM69.97 67.5728C58.41 58.0628 47.58 47.4928 34.5 36.7428ZM69.94 56.9428C57.87 48.2628 49.73 38.0428 41.26 32.0128ZM69.94 56.9428C61.48 48.7128 51.61 42.3428 41.26 32.0128ZM69.9 46.3128C63.58 40.8128 57.17 32.8528 47.26 26.6328ZM69.9 46.3128C60.49 39.5228 52.15 30.1128 47.26 26.6328ZM69.87 35.6828C63.69 29.1028 59.02 26.2028 54.02 21.9128ZM69.87 35.6828C67.37 33.6628 63.81 30.2628 54.02 21.9128ZM69.84 25.0528C69.09 23.3328 65.86 22.1428 60.78 17.1828ZM69.84 25.0528C67.61 22.8528 64.98 20.7828 60.78 17.1828ZM69.8 14.4228C68.44 13.2328 67.51 12.6328 66.78 11.8028ZM69.8 14.4228C68.72 13.5328 67.86 13.0528 66.78 11.8028Z" stroke="#A5D8FF" stroke-linecap="round"/>
<path d="M10 55.7828C35.86 36.4428 57.28 17.5028 70 10.0028M10 55.7828C28.16 42.4728 48 28.5228 70 10.0028M10 55.7828C29.57 73.4328 50.38 93.4928 70 110.003M10 55.7828C29.35 74.3828 50.08 91.3828 70 110.003M70 10.0028C71.01 31.8428 69.09 51.3028 70 110.003M70 10.0028C71.17 34.0228 70.11 56.3728 70 110.003" stroke="white" stroke-width="2" stroke-linecap="round"/>
</svg>
