<svg width="128" height="100" viewBox="0 0 128 100" fill="none" xmlns="http://www.w3.org/2000/svg">
<path d="M122 8.43033C123.333 7.66076 125 8.62328 125 10.1628V89.8376C125 91.3769 123.333 92.3387 122 91.569L75 64.4333V89.8376C74.9997 91.3769 73.3332 92.3387 72 91.569L3 51.7321C1.6667 50.9623 1.66678 49.0381 3 48.2682L72 8.43033C73.3333 7.66076 74.9999 8.62328 75 10.1628V35.5661L122 8.43033Z" fill="#E0D57C"/>
<path d="M122 8.43033L121.25 7.13121L121.25 7.13129L122 8.43033ZM125 10.1628H126.5V10.1627L125 10.1628ZM125 89.8376L126.5 89.8378V89.8376H125ZM122 91.569L121.25 92.868L121.25 92.868L122 91.569ZM75 64.4333L75.75 63.1342L73.5 61.8352V64.4333H75ZM75 89.8376L76.5 89.8378V89.8376H75ZM72 91.569L72.75 90.27V90.27L72 91.569ZM3 51.7321L2.25 53.0311L2.25 53.0311L3 51.7321ZM3 48.2682L2.24999 46.9692L2.24992 46.9692L3 48.2682ZM72 8.43033L71.2501 7.13121L71.25 7.1313L72 8.43033ZM75 10.1628H76.5V10.1627L75 10.1628ZM75 35.5661H73.5V38.1642L75.75 36.8651L75 35.5661ZM122 8.43033L122.75 9.72945C123.083 9.53721 123.5 9.77766 123.5 10.1628L125 10.1628L126.5 10.1627C126.5 7.46889 123.584 5.78431 121.25 7.13121L122 8.43033ZM125 10.1628H123.5V89.8376H125H126.5V10.1628H125ZM125 89.8376L123.5 89.8373C123.5 90.2218 123.084 90.4625 122.75 90.27L122 91.569L121.25 92.868C123.583 94.2149 126.5 92.532 126.5 89.8378L125 89.8376ZM122 91.569L122.75 90.27L75.75 63.1342L75 64.4333L74.25 65.7323L121.25 92.868L122 91.569ZM75 64.4333H73.5V89.8376H75H76.5V64.4333H75ZM75 89.8376L73.5 89.8373C73.4999 90.2218 73.0835 90.4625 72.75 90.27L72 91.569L71.25 92.868C73.5829 94.2149 76.4995 92.532 76.5 89.8378L75 89.8376ZM72 91.569L72.75 90.27L3.75 50.433L3 51.7321L2.25 53.0311L71.25 92.868L72 91.569ZM3 51.7321L3.75 50.433C3.41682 50.2407 3.41663 49.7598 3.75008 49.5672L3 48.2682L2.24992 46.9692C-0.0830772 48.3164 -0.0834141 51.6839 2.25 53.0311L3 51.7321ZM3 48.2682L3.75001 49.5673L72.75 9.72936L72 8.43033L71.25 7.1313L2.24999 46.9692L3 48.2682ZM72 8.43033L72.7499 9.72945C73.0829 9.53721 73.5 9.77766 73.5 10.1628L75 10.1628L76.5 10.1627C76.4999 7.46889 73.5836 5.78431 71.2501 7.13121L72 8.43033ZM75 10.1628H73.5V35.5661H75H76.5V10.1628H75ZM75 35.5661L75.75 36.8651L122.75 9.72936L122 8.43033L121.25 7.13129L74.25 34.267L75 35.5661Z" fill="#FFF700"/>
</svg>
