<svg width="49" height="73" viewBox="0 0 49 73" fill="none" xmlns="http://www.w3.org/2000/svg">
<path fill-rule="evenodd" clip-rule="evenodd" d="M9.75779 37.1283C12.8421 32.6874 14.8678 30.3332 25.3191 19.2189ZM9.75779 37.1283C15.5857 31.6289 19.9353 25.3083 25.3191 19.2189ZM13.4322 40.322C22.0767 31.2822 28.8901 22.2484 42.961 6.34659ZM13.4322 40.322C24.9115 26.2391 36.4883 12.8314 42.961 6.34659ZM17.1005 43.5158C26.7852 32.6996 34.2617 22.656 43.0462 13.6709ZM17.1005 43.5158C24.1876 35.2728 30.9645 26.5189 43.0462 13.6709ZM20.3733 47.1658C26.6331 40.0239 31.6641 33.898 43.1253 20.9953ZM20.3733 47.1658C24.8081 41.2953 30.0094 35.9359 43.1253 20.9953ZM24.0477 50.3595C30.1129 44.7203 35.9225 36.9093 42.8089 28.7819ZM24.0477 50.3595C30.7759 42.5728 38.0334 35.1086 42.8089 28.7819ZM27.7221 53.5533C30.8064 50.4082 34.6207 45.0244 42.888 36.1063ZM27.7221 53.5533C31.2626 49.5261 35.3324 45.4198 42.888 36.1063ZM31.3965 56.7409C33.9089 53.7053 37.9361 48.6014 42.9671 43.4306ZM31.3965 56.7409C35.7522 51.7404 40.6858 47.0563 42.9671 43.4306ZM35.0708 59.9347C36.5126 56.9478 38.289 55.6642 43.0523 50.7549ZM35.0708 59.9347C36.6282 58.1888 38.8365 55.944 43.0523 50.7549ZM38.7391 63.1284C40.0288 61.8266 40.8622 60.6951 42.7298 58.5355ZM38.7391 63.1284C40.0288 61.2365 41.7504 59.7887 42.7298 58.5355ZM42.012 66.7784C42.0911 66.6263 42.304 66.3161 42.815 65.8598ZM42.012 66.7784C42.1762 66.5777 42.45 66.2857 42.815 65.8598ZM42.6325 60.5065C36.2753 54.6726 27.5031 48.5163 9.11295 31.3734ZM42.6325 60.5065C30.2771 50.0128 16.8024 38.1746 9.11295 31.3734ZM42.6082 54.0399C29.76 43.1994 18.1042 34.2934 13.2253 28.5021ZM42.6082 54.0399C34.7119 47.1536 26.11 38.9898 13.2253 28.5021ZM42.5899 47.5733C35.1682 41.1128 28.7198 35.4553 17.3377 25.6247ZM42.5899 47.5733C34.9066 40.76 26.2986 33.0159 17.3377 25.6247ZM42.5656 41.1068C37.5224 36.6355 32.2299 31.5194 20.9878 22.3518ZM42.5656 41.1068C35.5332 35.3215 28.9448 28.8914 20.9878 22.3518ZM42.5473 34.6402C35.2047 29.3598 30.2528 23.1427 25.1001 19.4744ZM42.5473 34.6402C37.4008 29.6336 31.3965 25.7585 25.1001 19.4744ZM42.523 28.1736C38.6783 24.8278 34.7788 19.9854 28.7502 16.2016ZM42.523 28.1736C36.7985 24.043 31.725 18.3186 28.7502 16.2016ZM42.5047 21.707C38.7452 17.7042 35.9043 15.94 32.8626 13.3303ZM42.5047 21.707C40.9839 20.4782 38.8182 18.4098 32.8626 13.3303ZM42.4865 15.2404C42.0302 14.1941 40.0653 13.4702 36.9749 10.4528ZM42.4865 15.2404C41.1299 13.9021 39.53 12.6428 36.9749 10.4528ZM42.4622 8.77384C41.6348 8.04992 41.0691 7.68492 40.625 7.18ZM42.4622 8.77384C41.8052 8.23242 41.282 7.94042 40.625 7.18Z" stroke="#2280C8" stroke-linecap="round"/>
<path d="M6.0834 33.9345C21.8151 22.1693 34.8457 10.6475 42.5838 6.08501M6.0834 33.9345C17.1309 25.8376 29.2003 17.3513 42.5838 6.08501M6.0834 33.9345C17.9886 44.6716 30.6482 56.8748 42.5838 66.9183M6.0834 33.9345C17.8548 45.2495 30.4657 55.5912 42.5838 66.9183M42.5838 6.08501C43.1983 19.371 42.0302 31.2092 42.5838 66.9183M42.5838 6.08501C43.2956 20.6972 42.6507 34.2934 42.5838 66.9183" stroke="#F6E774" stroke-width="2" stroke-linecap="round"/>
</svg>
