<svg width="120" height="120" viewBox="0 0 120 120" fill="none" xmlns="http://www.w3.org/2000/svg">
<path d="M10.41 35.53C18.6 24.22 26.51 17.75 31.4 11.38ZM10.41 35.53C16.17 29.79 20.01 23.1 31.4 11.38ZM10.54 47.57C21.46 33.7 32.4 22.57 43.35 9.84ZM10.54 47.57C21.06 34.62 34.19 21.15 43.35 9.84ZM10.68 59.61C27.46 40.67 44.05 20.21 53.32 10.56ZM10.68 59.61C26.72 42.25 42.58 23.52 53.32 10.56ZM10.81 71.65C25.52 57.37 38.68 38.35 63.95 10.52ZM10.81 71.65C27.01 52.8 43.23 35.97 63.95 10.52ZM10.29 84.45C27.95 65.51 43.08 46.45 74.58 10.49ZM10.29 84.45C27.61 65.26 45.1 43.58 74.58 10.49ZM12.39 94.23C34.56 66.89 58.65 43.16 85.21 10.45ZM12.39 94.23C32.67 72.92 50.49 49.25 85.21 10.45ZM15.8 102.49C36.06 79.48 54.59 53.88 94.53 11.93ZM15.8 102.49C36.97 78.12 56.15 53.8 94.53 11.93ZM21.84 107.74C47.5 76.31 74.04 47.35 101.88 15.67ZM21.84 107.74C48.21 78.22 73.9 49.21 101.88 15.67ZM30.5 109.97C55.58 77.74 83.35 46.16 107.26 21.67ZM30.5 109.97C60.56 74.06 91.53 39.78 107.26 21.67ZM41.13 109.94C64.72 82.01 89.7 56.29 109.36 31.45ZM41.13 109.94C65.57 81.54 90.58 52.28 109.36 31.45ZM51.76 109.9C65.54 93.52 79.14 74.9 110.15 42.73ZM51.76 109.9C67.22 91.41 82.81 73.12 110.15 42.73ZM62.39 109.87C75.35 96.73 87.85 79.81 110.28 54.77ZM62.39 109.87C80.02 91.05 95.32 72.48 110.28 54.77ZM73.02 109.83C85.42 94.52 96.91 81.22 109.76 67.57ZM73.02 109.83C81.06 100.09 90.15 90.18 109.76 67.57ZM83.65 109.8C94.32 99.1 100.24 90.68 109.89 79.61ZM83.65 109.8C89.46 103.37 95.58 95.17 109.89 79.61ZM95.59 108.26C99.17 103.72 104.26 100.25 110.03 91.65ZM95.59 108.26C100.56 102.9 105.07 96.44 110.03 91.65ZM35.07 109.19C25.21 101.17 18.57 93.64 10.92 88.2ZM35.07 109.19C25.88 101.04 17.72 93.58 10.92 88.2ZM47.87 109.72C41.74 105.01 32.85 95.9 10.13 76.91ZM47.87 109.72C39.82 102.06 30.49 95.66 10.13 76.91ZM59.91 109.58C45.05 98.73 30.41 82.98 10.1 66.28ZM59.91 109.58C43.79 95.22 29.94 82.66 10.1 66.28ZM71.95 109.45C49.12 93.25 29.69 75.33 10.07 55.65ZM71.95 109.45C54.61 95.9 38.77 81.78 10.07 55.65ZM84.75 109.97C69.07 98.28 53.54 81.76 10.03 45.02ZM84.75 109.97C63.91 91.26 44 73.49 10.03 45.02ZM93.77 107.21C65.15 81.23 34.22 56.98 10 34.39ZM93.77 107.21C70.6 88.17 48.79 68.87 10 34.39ZM102.79 104.46C72.73 76.89 41.44 52.43 11.47 25.07ZM102.79 104.46C81.74 85.71 60.13 68.8 11.47 25.07ZM107.29 97.76C74.31 68.55 39.11 39.73 15.21 17.72ZM107.29 97.76C71.43 65.81 33.65 33.49 15.21 17.72ZM109.51 89.1C82.05 67.06 60.25 44.67 21.21 12.34ZM109.51 89.1C88.3 71.26 66.04 50.64 21.21 12.34ZM110.24 79.13C92.69 62.39 73.53 49.09 30.99 10.24ZM110.24 79.13C92.07 63.99 76.37 48.24 30.99 10.24ZM110.2 68.5C84.1 46.99 59.77 23.74 43.03 10.11ZM110.2 68.5C88.68 48.72 66.22 28.87 43.03 10.11ZM110.17 57.87C92.92 42.5 73.99 28.49 55.07 9.97ZM110.17 57.87C93.64 43.52 78.83 30.44 55.07 9.97ZM110.13 47.24C96.64 36.08 82.01 20.43 67.11 9.84ZM110.13 47.24C95.07 33.61 78.47 19.85 67.11 9.84ZM110.1 36.61C100.03 25.02 88.54 17.51 79.91 10.36ZM110.1 36.61C103.81 30.78 97.84 24.93 79.91 10.36ZM108.55 24.66C103.55 19.9 96.27 16.65 91.19 9.58ZM108.55 24.66C102.69 20.14 95.9 14.04 91.19 9.58Z" stroke="#FB8484" stroke-linecap="round"/>
<path d="M35 10C45.53 12.01 58.9 8.61 85 10M35 10C53.31 8.92 70.39 10.35 85 10M35 10C19.03 10.73 10.64 16.89 10 35M35 10C18.56 10.32 11.79 16.25 10 35M85 10C100.36 8.18 110.06 19.82 110 35M85 10C103.89 11.89 108.4 19.94 110 35M110 35C109.5 48.85 109.18 61.78 110 85M110 35C110.22 49.94 110.13 65.86 110 85M110 85C109.23 99.7 100.81 110.6 85 110M110 85C110.47 100.08 103.36 111.24 85 110M85 110C74.58 110.45 65.77 110.62 35 110M85 110C70.82 109.01 55.26 109.73 35 110M35 110C19.38 109.1 11.38 102.47 10 85M35 110C16.92 108.24 9.14 103.93 10 85M10 85C11.32 68.92 9.76 52.31 10 35M10 85C10.19 69.71 9.94 53.49 10 35" stroke="white" stroke-width="2" stroke-linecap="round"/>
</svg>
