<svg width="98" height="98" viewBox="0 0 98 98" fill="none" xmlns="http://www.w3.org/2000/svg">
<path d="M8.50152 29.0162C15.19 19.7797 21.6499 14.4958 25.6434 9.29367ZM8.50152 29.0162C13.2055 24.3285 16.3415 18.865 25.6434 9.29367ZM8.60769 38.8488C17.5257 27.5217 26.46 18.4322 35.4025 8.036ZM8.60769 38.8488C17.199 28.273 27.9219 17.2725 35.4025 8.036ZM8.72202 48.6815C22.4257 33.2138 35.9742 16.5048 43.5447 8.624ZM8.72202 48.6815C21.8214 34.5042 34.7737 19.208 43.5447 8.624ZM8.82819 58.5142C20.8414 46.8522 31.5887 31.3192 52.2259 8.59133ZM8.82819 58.5142C22.0582 43.12 35.3045 29.3755 52.2259 8.59133ZM8.40352 68.9675C22.8259 53.4998 35.182 37.9342 60.907 8.56683ZM8.40352 68.9675C22.5482 53.2957 36.8317 35.5903 60.907 8.56683ZM10.1185 76.9545C28.224 54.6268 47.8975 35.2473 69.5882 8.53417ZM10.1185 76.9545C26.6805 59.5513 41.2335 40.2208 69.5882 8.53417ZM12.9034 83.7002C29.449 64.9087 44.5819 44.002 77.1995 9.74283ZM12.9034 83.7002C30.1922 63.798 45.8559 43.9367 77.1995 9.74283ZM17.836 87.9877C38.7917 62.3198 60.466 38.6692 83.202 12.7972ZM17.836 87.9877C39.3715 63.8797 60.3517 40.1882 83.202 12.7972ZM24.9084 89.8088C45.3904 63.4877 68.0692 37.6973 87.5957 17.6972ZM24.9084 89.8088C49.4574 60.4823 74.7495 32.487 87.5957 17.6972ZM33.5895 89.7843C52.8547 66.9748 73.255 45.9702 89.3107 25.6842ZM33.5895 89.7843C53.5489 66.591 73.9737 42.6953 89.3107 25.6842ZM42.2707 89.7517C53.5244 76.3747 64.631 61.1683 89.9559 34.8962ZM42.2707 89.7517C54.8964 74.6515 67.6282 59.7147 89.9559 34.8962ZM50.9519 89.7272C61.5359 78.9962 71.7442 65.1782 90.062 44.7288ZM50.9519 89.7272C65.3497 74.3575 77.8447 59.192 90.062 44.7288ZM59.633 89.6945C69.7597 77.1913 79.1432 66.3297 89.6374 55.1822ZM59.633 89.6945C66.199 81.7402 73.6225 73.647 89.6374 55.1822ZM68.3142 89.67C77.028 80.9317 81.8627 74.0553 89.7435 65.0148ZM68.3142 89.67C73.059 84.4188 78.057 77.7222 89.7435 65.0148ZM78.0652 88.4123C80.9889 84.7047 85.1457 81.8708 89.8579 74.8475ZM78.0652 88.4123C82.124 84.035 85.8072 78.7593 89.8579 74.8475ZM28.6405 89.1718C20.5882 82.6222 15.1655 76.4727 8.91802 72.03ZM28.6405 89.1718C21.1354 82.516 14.4714 76.4237 8.91802 72.03ZM39.0939 89.6047C34.0877 85.7582 26.8275 78.3183 8.27285 62.8098ZM39.0939 89.6047C32.5197 83.349 24.9002 78.1223 8.27285 62.8098ZM48.9265 89.4903C36.7909 80.6295 24.8349 67.767 8.24835 54.1287ZM48.9265 89.4903C35.7619 77.763 24.451 67.5057 8.24835 54.1287ZM58.7592 89.3842C40.1147 76.1542 24.2469 61.5195 8.22385 45.4475ZM58.7592 89.3842C44.5982 78.3183 31.6622 66.787 8.22385 45.4475ZM69.2125 89.8088C56.4072 80.262 43.7244 66.7707 8.19119 36.7663ZM69.2125 89.8088C52.1932 74.529 35.9334 60.0168 8.19119 36.7663ZM76.5789 87.5548C53.2059 66.3378 27.9464 46.5337 8.16669 28.0852ZM76.5789 87.5548C57.6567 72.0055 39.8452 56.2438 8.16669 28.0852ZM83.9452 85.309C59.3962 62.7935 33.8427 42.8178 9.36719 20.4738ZM83.9452 85.309C66.7544 69.9965 49.1062 56.1867 9.36719 20.4738ZM87.6202 79.8373C60.6865 55.9825 31.9399 32.4462 12.4215 14.4713ZM87.6202 79.8373C58.3345 53.7448 27.4809 27.3502 12.4215 14.4713ZM89.4332 72.765C67.0075 54.7657 49.2042 36.4805 17.3215 10.0777ZM89.4332 72.765C72.1117 58.1957 53.9327 41.356 17.3215 10.0777ZM90.0294 64.6228C75.6969 50.9518 60.0495 40.0902 25.3085 8.36267ZM90.0294 64.6228C75.1905 52.2585 62.3689 39.396 25.3085 8.36267ZM89.9967 55.9417C68.6817 38.3752 48.8122 19.3877 35.1412 8.2565ZM89.9967 55.9417C72.422 39.788 54.0797 23.5772 35.1412 8.2565ZM89.9722 47.2605C75.8847 34.7083 60.4252 23.2668 44.9739 8.14217ZM89.9722 47.2605C76.4727 35.5413 64.3779 24.8593 44.9739 8.14217ZM89.9395 38.5793C78.9227 29.4653 66.9749 16.6845 54.8065 8.036ZM89.9395 38.5793C77.6405 27.4482 64.0839 16.2108 54.8065 8.036ZM89.915 29.8982C81.6912 20.433 72.3077 14.2998 65.2599 8.46067ZM89.915 29.8982C84.7782 25.137 79.9027 20.3595 65.2599 8.46067ZM88.6492 20.139C84.5659 16.2517 78.6205 13.5975 74.4719 7.82367ZM88.6492 20.139C83.8635 16.4477 78.3184 11.466 74.4719 7.82367Z" stroke="#ED3434" stroke-linecap="round"/>
<path d="M28.5833 8.16659C37.1828 9.80809 48.1017 7.03143 69.4167 8.16659M28.5833 8.16659C43.5365 7.28459 57.4852 8.45243 69.4167 8.16659M28.5833 8.16659C15.5412 8.76276 8.68934 13.7934 8.16668 28.5833M28.5833 8.16659C15.1573 8.42793 9.62851 13.2708 8.16668 28.5833M69.4167 8.16659C81.9607 6.68026 89.8823 16.1863 89.8333 28.5833M69.4167 8.16659C84.8435 9.71009 88.5267 16.2843 89.8333 28.5833M89.8333 28.5833C89.425 39.8941 89.1637 50.4536 89.8333 69.4166M89.8333 28.5833C90.013 40.7843 89.9395 53.7856 89.8333 69.4166M89.8333 69.4166C89.2045 81.4216 82.3282 90.3233 69.4167 89.8333M89.8333 69.4166C90.2172 81.7319 84.4107 90.8459 69.4167 89.8333M69.4167 89.8333C60.907 90.2008 53.7122 90.3396 28.5833 89.8333M69.4167 89.8333C57.8363 89.0248 45.129 89.6128 28.5833 89.8333M28.5833 89.8333C15.827 89.0983 9.29368 83.6838 8.16668 69.4166M28.5833 89.8333C13.818 88.3959 7.46434 84.8761 8.16668 69.4166M8.16668 69.4166C9.24468 56.2846 7.97068 42.7198 8.16668 28.5833M8.16668 69.4166C8.32184 56.9298 8.11768 43.6834 8.16668 28.5833" stroke="#FFA75B" stroke-width="2" stroke-linecap="round"/>
</svg>
