<svg xmlns="http://www.w3.org/2000/svg" viewBox="0 0 88 88" fill="none">
  <g stroke="#495057" stroke-width="2" stroke-linecap="round">
    <path d="M22 22 H66 M22 36 H66 M22 50 H66 M22 64 H66"/>
    <path d="M22 22 V66 M36 22 V66 M50 22 V66 M64 22 V66"/>
  </g>
  <g fill="#1e1e2e">
    <circle cx="22" cy="22" r="3.5"/><circle cx="36" cy="22" r="3.5"/><circle cx="50" cy="22" r="3.5"/><circle cx="64" cy="22" r="3.5"/>
    <circle cx="22" cy="36" r="3.5"/><circle cx="36" cy="36" r="3.5"/><circle cx="50" cy="36" r="3.5"/><circle cx="64" cy="36" r="3.5"/>
    <circle cx="22" cy="50" r="3.5"/><circle cx="36" cy="50" r="3.5"/><circle cx="50" cy="50" r="3.5"/><circle cx="64" cy="50" r="3.5"/>
    <circle cx="22" cy="64" r="3.5"/><circle cx="36" cy="64" r="3.5"/><circle cx="50" cy="64" r="3.5"/><circle cx="64" cy="64" r="3.5"/>
  </g>
</svg>
